# xmcd
#
# Track frame offsets:
#	150
#	19479
#	36430
#	55332
#	71061
#	86795
#	107976
#	128673
#	145184
#	161973
#	178130
#	198861
#	219750
#	241781
#	261734
#	283221
#	305357
#	327055
#
# Disc length: 4624 seconds
#
# Revision: 1
# Processed by: cddbd v1.5.1PL0 Copyright (c) Steve Scherf et al.
# Submitted via: audiograbber 1.82.02
#
DISCID=18120e12
DTITLE=Whitney Houston - Just Whitney
DYEAR=1900
DGENRE=
TTITLE0=One of those days
TTITLE1=Tell me no (Feat Santana)
TTITLE2=Thing you say
TTITLE3=My love (Feat Bobby Brown)
TTITLE4=Look that man
TTITLE5=Try it on my own
TTITLE6=Dear John letter
TTITLE7=Unashmed
TTITLE8=You light up my life
TTITLE9=Watchlookina
TTITLE10=I will always love you
TTITLE11=When you believe
TTITLE12=I have nothing
TTITLE13=Unknowned
TTITLE14=Hear break hotel
TTITLE15=Greatest Love of all
TTITLE16=I am very woman
TTITLE17=My love is your love
EXTD=
EXTT0=
EXTT1=
EXTT2=
EXTT3=
EXTT4=
EXTT5=
EXTT6=
EXTT7=
EXTT8=
EXTT9=
EXTT10=
EXTT11=
EXTT12=
EXTT13=
EXTT14=
EXTT15=
EXTT16=
EXTT17=
PLAYORDER=
